<svg width="30" height="30" viewBox="0 0 30 30" fill="none" xmlns="http://www.w3.org/2000/svg">
<path id="Primary" d="M14.553 3.50223C14.6467 3.32143 14.8167 3.21429 14.9983 3.21429C15.1799 3.21429 15.3499 3.32143 15.4436 3.50223L27.0627 25.3125C27.1448 25.4665 27.1858 25.6406 27.1858 25.8147C27.1858 26.3504 26.8049 26.7857 26.3362 26.7857H3.6604C3.19165 26.7857 2.81079 26.3504 2.81079 25.8147C2.81079 25.6339 2.85181 25.4598 2.93384 25.3125L14.553 3.50223ZM12.1506 1.82812L0.531494 23.6384C0.179932 24.2946 -0.00170898 25.0446 -0.00170898 25.8147C-0.00170898 28.125 1.63892 30 3.6604 30H26.3362C28.3577 30 29.9983 28.125 29.9983 25.8147C29.9983 25.0446 29.8108 24.2946 29.4651 23.6384L17.8459 1.82812C17.2424 0.696429 16.1643 0 14.9983 0C13.8323 0 12.7542 0.696429 12.1506 1.82812ZM16.8733 22.5C16.8733 21.9317 16.6757 21.3866 16.3241 20.9848C15.9725 20.5829 15.4956 20.3571 14.9983 20.3571C14.501 20.3571 14.0241 20.5829 13.6725 20.9848C13.3208 21.3866 13.1233 21.9317 13.1233 22.5C13.1233 23.0683 13.3208 23.6134 13.6725 24.0152C14.0241 24.4171 14.501 24.6429 14.9983 24.6429C15.4956 24.6429 15.9725 24.4171 16.3241 24.0152C16.6757 23.6134 16.8733 23.0683 16.8733 22.5ZM16.4045 10.1786C16.4045 9.28795 15.7776 8.57143 14.9983 8.57143C14.219 8.57143 13.592 9.28795 13.592 10.1786V16.6071C13.592 17.4978 14.219 18.2143 14.9983 18.2143C15.7776 18.2143 16.4045 17.4978 16.4045 16.6071V10.1786Z" fill="#202020"/>
</svg>
