<svg width="21" height="24" viewBox="0 0 21 24" fill="none" xmlns="http://www.w3.org/2000/svg">
<g id="lock-keyhole" clip-path="url(#clip0_2263_2792)">
<path id="Primary" d="M10.5 1.5C12.9844 1.5 15 3.51562 15 6V9H6V6C6 3.51562 8.01562 1.5 10.5 1.5ZM4.5 6V9H3.75C1.67812 9 0 10.6781 0 12.75V20.25C0 22.3219 1.67812 24 3.75 24H17.25C19.3219 24 21 22.3219 21 20.25V12.75C21 10.6781 19.3219 9 17.25 9H16.5V6C16.5 2.68594 13.8141 0 10.5 0C7.18594 0 4.5 2.68594 4.5 6ZM3.75 10.5H17.25C18.4922 10.5 19.5 11.5078 19.5 12.75V20.25C19.5 21.4922 18.4922 22.5 17.25 22.5H3.75C2.50781 22.5 1.5 21.4922 1.5 20.25V12.75C1.5 11.5078 2.50781 10.5 3.75 10.5ZM11.25 14.625C11.25 14.2125 10.9125 13.875 10.5 13.875C10.0875 13.875 9.75 14.2125 9.75 14.625V18.375C9.75 18.7875 10.0875 19.125 10.5 19.125C10.9125 19.125 11.25 18.7875 11.25 18.375V14.625Z" fill="white"/>
</g>
<defs>
<clipPath id="clip0_2263_2792">
<rect width="21" height="24" fill="white"/>
</clipPath>
</defs>
</svg>
