<svg width="44" height="44" viewBox="0 0 44 44" fill="none" xmlns="http://www.w3.org/2000/svg">
<g id="Navigation Icons">
<path id="Primary" d="M21.9969 10.1883C21.7156 9.93984 21.289 9.93984 21.0031 10.1883L8.25311 21.4383C7.94374 21.7102 7.91092 22.1883 8.18749 22.4977C8.46405 22.807 8.93749 22.8398 9.24686 22.5633L11 21.0164V30.2508C11 32.3227 12.6781 34.0008 14.75 34.0008H28.25C30.3219 34.0008 32 32.3227 32 30.2508V21.0164L33.7531 22.5633C34.0625 22.8352 34.5359 22.807 34.8125 22.4977C35.089 22.1883 35.0562 21.7148 34.7469 21.4383L21.9969 10.1883ZM12.5 30.2508V19.6898L21.5 11.7492L30.5 19.6898V30.2508C30.5 31.493 29.4922 32.5008 28.25 32.5008H25.25V25.0008C25.25 24.1711 24.5797 23.5008 23.75 23.5008H19.25C18.4203 23.5008 17.75 24.1711 17.75 25.0008V32.5008H14.75C13.5078 32.5008 12.5 31.493 12.5 30.2508ZM19.25 32.5008V25.0008H23.75V32.5008H19.25Z" fill="#202020"/>
</g>
</svg>
