<svg width="30" height="30" viewBox="0 0 30 30" fill="none" xmlns="http://www.w3.org/2000/svg">
<path id="Primary" d="M2.98242 14.5898L14.5898 2.98242C14.7012 2.87109 14.8477 2.8125 15 2.8125C15.1523 2.8125 15.3047 2.87109 15.4102 2.98242L27.0176 14.5898C27.1289 14.7012 27.1875 14.8477 27.1875 15C27.1875 15.1523 27.1289 15.3047 27.0176 15.4102L15.4102 27.0176C15.2988 27.1289 15.1523 27.1875 15 27.1875C14.8477 27.1875 14.6953 27.1289 14.5898 27.0176L2.98242 15.4102C2.87109 15.2988 2.8125 15.1523 2.8125 15C2.8125 14.8477 2.87109 14.6953 2.98242 14.5898ZM12.5977 0.996094L0.996094 12.5977C0.357422 13.2363 0 14.0977 0 15C0 15.9023 0.357422 16.7637 0.996094 17.4023L12.5977 29.0039C13.2363 29.6426 14.0977 30 15 30C15.9023 30 16.7637 29.6426 17.4023 29.0039L29.0039 17.4023C29.6426 16.7637 30 15.9023 30 15C30 14.0977 29.6426 13.2363 29.0039 12.5977L17.4023 0.996094C16.7637 0.357422 15.9023 0 15 0C14.0977 0 13.2363 0.357422 12.5977 0.996094ZM15 7.5C14.2207 7.5 13.5938 8.12695 13.5938 8.90625V15.4688C13.5938 16.248 14.2207 16.875 15 16.875C15.7793 16.875 16.4062 16.248 16.4062 15.4688V8.90625C16.4062 8.12695 15.7793 7.5 15 7.5ZM16.875 20.625C16.875 20.1277 16.6775 19.6508 16.3258 19.2992C15.9742 18.9475 15.4973 18.75 15 18.75C14.5027 18.75 14.0258 18.9475 13.6742 19.2992C13.3225 19.6508 13.125 20.1277 13.125 20.625C13.125 21.1223 13.3225 21.5992 13.6742 21.9508C14.0258 22.3025 14.5027 22.5 15 22.5C15.4973 22.5 15.9742 22.3025 16.3258 21.9508C16.6775 21.5992 16.875 21.1223 16.875 20.625Z" fill="white"/>
</svg>
