<svg width="31" height="31" viewBox="0 0 31 31" fill="none" xmlns="http://www.w3.org/2000/svg">
<path id="Primary" d="M15.8242 2.94922C19.0565 2.94922 22.1565 4.23326 24.4421 6.51886C26.7277 8.80445 28.0117 11.9044 28.0117 15.1367C28.0117 18.369 26.7277 21.469 24.4421 23.7546C22.1565 26.0402 19.0565 27.3242 15.8242 27.3242C12.5919 27.3242 9.49195 26.0402 7.20636 23.7546C4.92076 21.469 3.63672 18.369 3.63672 15.1367C3.63672 11.9044 4.92076 8.80445 7.20636 6.51886C9.49195 4.23326 12.5919 2.94922 15.8242 2.94922ZM15.8242 30.1367C19.8025 30.1367 23.6178 28.5564 26.4308 25.7433C29.2439 22.9303 30.8242 19.115 30.8242 15.1367C30.8242 11.1585 29.2439 7.34316 26.4308 4.53012C23.6178 1.71707 19.8025 0.136719 15.8242 0.136719C11.846 0.136719 8.03066 1.71707 5.21762 4.53012C2.40457 7.34316 0.824219 11.1585 0.824219 15.1367C0.824219 19.115 2.40457 22.9303 5.21762 25.7433C8.03066 28.5564 11.846 30.1367 15.8242 30.1367ZM15.8242 7.63672C15.0449 7.63672 14.418 8.26367 14.418 9.04297V15.6055C14.418 16.3848 15.0449 17.0117 15.8242 17.0117C16.6035 17.0117 17.2305 16.3848 17.2305 15.6055V9.04297C17.2305 8.26367 16.6035 7.63672 15.8242 7.63672ZM17.6992 20.7617C17.6992 20.2644 17.5017 19.7875 17.15 19.4359C16.7984 19.0843 16.3215 18.8867 15.8242 18.8867C15.3269 18.8867 14.85 19.0843 14.4984 19.4359C14.1468 19.7875 13.9492 20.2644 13.9492 20.7617C13.9492 21.259 14.1468 21.7359 14.4984 22.0875C14.85 22.4392 15.3269 22.6367 15.8242 22.6367C16.3215 22.6367 16.7984 22.4392 17.15 22.0875C17.5017 21.7359 17.6992 21.259 17.6992 20.7617Z" fill="#202020"/>
</svg>
