<?xml version="1.0" encoding="UTF-8"?>
<svg id="Layer_1" xmlns="http://www.w3.org/2000/svg" version="1.1" viewBox="0 0 314.6 403.8">
  <!-- Generator: Adobe Illustrator 29.1.0, SVG Export Plug-In . SVG Version: 2.1.0 Build 142)  -->
  <defs>
    <style>
      .st0 {
        stroke-width: .6px;
      }

      .st0, .st1, .st2 {
        fill: #010101;
      }

      .st0, .st3, .st4 {
        stroke-miterlimit: 10;
      }

      .st0, .st2 {
        stroke: #010101;
      }

      .st3 {
        fill: #ade1fa;
        stroke: #02425c;
        stroke-width: 4px;
      }

      .st5 {
        fill: #fff;
      }

      .st6 {
        fill: #606161;
        opacity: .1;
      }

      .st2 {
        stroke-linecap: round;
        stroke-linejoin: round;
        stroke-width: 1.3px;
      }

      .st4 {
        fill: #231f20;
        stroke: #231f20;
        stroke-width: 1.6px;
      }

      .st7 {
        fill: #03425c;
      }
    </style>
  </defs>
  <g id="_x5B_Replace_x5D_">
    <path id="_x5B_Replace_x5D_1" data-name="_x5B_Replace_x5D_" class="st2" d="M203.9,374.2c-2.5-4-6.4-6.1-10.3-5.9-10.4.5-34.2,2.9-33.1,13.9s28.6,8.6,35.9,7.5c1.6-.2,3.1-.9,4.4-1.8,3.1-2.2,7.4-6.7,3-13.6Z"/>
  </g>
  <g id="_x5B_Replace_x5D_2" data-name="_x5B_Replace_x5D_">
    <path id="_x5B_Replace_x5D_3" data-name="_x5B_Replace_x5D_" class="st4" d="M229.1,374.4c2.5-4,6.4-6.1,10.3-5.9,10.4.5,34.2,2.9,33.1,13.9-1.3,12.2-28.6,8.6-35.9,7.5s-3.1-.9-4.4-1.8c-3.1-2.2-7.4-6.7-3-13.6Z"/>
  </g>
  <path id="_x5B_Replace_x5D_4" data-name="_x5B_Replace_x5D_" class="st2" d="M241.8,308.4c-3.7-3-23.4-17-50.1-.5-1.4-.5-2.2-.5-2.2,1.4v71.8c0,3.6,3.1,6.5,6.8,6.5h2.7c3.8,0,6.8-2.9,6.8-6.5v-56.7c3.1.8,6.8,1.2,11.3,1,3.8-.2,7.1-.7,9.8-1.5v56.3c0,4.1,3.5,7.5,7.8,7.5h.7c4.3,0,7.8-3.4,7.8-7.5v-70c0-1.6-.5-2-1.4-1.9Z"/>
  <path class="st7" d="M199.3,21.3s24.9-19.5,40.5-9.7-2.4,35.1-6,59.8c-3.6,24.7-5.7,31.6,14.7,65.8,20.5,34.2,8,50.8,20.6,76.8,12.6,26.1,3.3,42.5,16.7,48.9s20,19.4,9.7,47.6c-13.5,36.9-35.2,24.6-62.4,23.8-26.7-.8-58.5-3.4-59.1-19.2s-1-92.3-2.5-116.1c-1.5-23.8-8.6-71.6-5.1-90.4,3.4-18.8,9.4-71,33-87.3Z"/>
  <path class="st3" d="M182.7,36.9s30.9-29.6,46.9-22.2c16,7.4-2.8,34.3-6.3,59.5s-5.7,32.2,14.7,67c20.5,34.8,8,51.7,20.5,78.2,12.6,26.5,8.7,42.8,21.7,50.1,13,7.4,8,17.7,4.7,48.2-2.7,25.2-33.7,18.1-60.8,17.3-26.7-.8-60,3.6-60.7-12.6s-1-93.9-2.5-118.2c-1.5-24.3-8.5-72.9-5.1-92,3.4-19.1,3.3-58.5,26.9-75.2Z"/>
  <path id="_x5B_Replace_x5D_5" data-name="_x5B_Replace_x5D_" class="st2" d="M192,210.6s5-16.1,8.9-14.4-2.5,14.5-2.5,14.5c0,0,3.7-10.2,6.9-8.2,3.2,2-3.3,11.1-3.3,11.1,0,0,4-7.9,7.3-5.7s-12.7,26-21.5,12.8c-1-1.4-1.5-3.1-1.5-4.8,0-5.2.3-17.6,4.1-15.8s1.6,10.4,1.6,10.4"/>
  <path class="st1" d="M202.9,218.5l-20.1,34.3s0,0,0,0c-3.4,4.9-.4.5-6.1,10.3-.6,1-2.4,3.6-5.7,8,0,0,0,0,0,.1-.5.6-1.1,1-1.8,1.4l-7.1,3.4c0-3.7-.4-14.7-.3-17.9l26.3-48.8c0-.1.2-.2.4-.1l6.9,3.6c.1,0,.2.2.1.4h0c0,.1,0,.3,0,.3l4,2.8s0,0,0,0l3.3,2c.1,0,.2.2,0,.4Z"/>
  <circle class="st1" cx="182.4" cy="163.4" r="7.4"/>
  <circle class="st5" cx="186" cy="162.7" r="1.8"/>
  <circle class="st1" cx="223.8" cy="163.7" r="7.4"/>
  <circle class="st5" cx="227.4" cy="163" r="1.8"/>
  <g id="_x5B_Replace_x5D_6" data-name="_x5B_Replace_x5D_">
    <path class="st0" d="M231.8,153.1c-.1,0-.2,0-.3,0h0c0,0-6.3-3.9-12.2-1.7-.3.1-.6,0-.7-.3-.1-.3,0-.6.3-.7,6.4-2.5,12.9,1.6,13.1,1.8.3.2.3.5.2.8-.1.2-.3.3-.5.3Z"/>
  </g>
  <g id="_x5B_Replace_x5D_7" data-name="_x5B_Replace_x5D_">
    <path class="st0" d="M174.6,153.3c-.2,0-.3,0-.4-.2-.2-.2-.1-.5.1-.7.2-.2,5.8-4.3,11.4-1.8.3.1.4.4.3.7-.1.3-.4.4-.7.3-5-2.3-10.3,1.6-10.3,1.7,0,0-.2.1-.3.1Z"/>
  </g>
  <ellipse class="st1" cx="205.8" cy="185.6" rx="5.1" ry="6.4"/>
  <path id="_x5B_Replace_x5D_8" data-name="_x5B_Replace_x5D_" class="st2" d="M224.5,209.3s-7.2-15.2-10.8-13c-3.6,2.2,4.5,14,4.5,14,0,0-5.2-9.6-8-7.1s4.8,10.5,4.8,10.5c0,0-5.1-7.3-8-4.6-2.8,2.5,16.3,23.9,23.1,9.6.7-1.5,1-3.3.8-5-.7-5.1-2.8-17.4-6.3-15-4.4,3,0,10.5,0,10.5"/>
  <path class="st1" d="M255.5,266c2.5,2.4,5.8,3.8,9.3,3.7s.2,0,.3,0l13.4-.3c-2.7-3.2-6.2-1.9-9.6-13.9l-41.6-48.3c0-.1-.3-.1-.4,0l-6.3,4.6c-.1,0-.1.3,0,.4h0c0,.1,0,.3,0,.3l-3.5,3.3s0,0,0,0l-3,2.4c-.1,0-.1.3,0,.4l24.6,28.4s4.5,5.6,4.5,5.6l12.3,13.5Z"/>
  <path class="st6" d="M133.6,172.8c.2-.3.3-.6.4-1,0-.2.1-.3.2-.5l.2-.5c.3-.8.6-1.5.8-2.1,1.5-4.2,2.6-8.5,3.3-12.9v-.8c.1,0,.2-.8.2-.8l.2-1.7c0-.7.2-1.5.2-2.2,0-.4,0-.8.1-1.1,0-.4,0-.7,0-1.1,0-.8,0-1.5,0-2.3,0-.3,0-.7,0-1,0-.8,0-1.6,0-2.4v-1.2c0-.4,0-.8,0-1.1v-2.3c-.1,0-.4-2.3-.4-2.3,0-.5-.1-1-.2-1.5,0-.3,0-.6-.1-.8-.5-3.2-1.1-6.3-2-9.3-.9-3.2-2-6.3-3.4-9.2-1.5-3.2-3.1-6.1-5-8.8-1.9-2.7-4-5.1-6.3-7.3-2.4-2.3-4.9-4.4-7.6-6.3-5-3.7-10.5-6.7-16.2-9s-1-.4-1.5-.6c-6.2-2.3-12.4-3.7-18.4-4.2-2.1-.2-4.3-.2-6.4-.1h0s0,0,0,0c-.3,0-.6,0-.9,0h0c-2.1,0-4.5,0-6.8.4-2.4.3-5.1.9-7.4,1.6-1.8.5-3.7,1.2-5.7,2.1-3.3,1.6-6.3,3.4-9.1,5.5-2.7,2-5.3,4.3-7.7,6.8-6.2,6.4-11.3,13.8-15.1,22-3.7,8.1-6.2,15.6-7.4,22.8-.1.7-.2,1.4-.3,2.1v.7c-.1,0-.2.7-.2.7,0,.7-.2,1.5-.3,2.2-.2,2.1-.3,4-.4,5.7,0,4.4.2,8.2,1,11.6,0,.4.2.8.3,1.3h0c.3,1.5.6,2.8,1,4,.9,2.7,2.1,5.6,3.5,8.1l.5.9c.1.2.2.4.4.6,0,.1.1.2.2.3.1.2.2.3.3.5.3.4.5.8.8,1.2l.3.4c.3.4.5.8.8,1.1l1,1.3c2.8,3.5,6.4,6.8,10.5,9.9,3.9,2.9,8.1,5.5,12.7,7.7,2.5,1.2,5.2,2.4,7.9,3.5s.8.3,1.3.5c1.7.7,3.2,1.2,4.8,1.7.5.2,1,.3,1.6.5.3,0,.5.2.8.2l1.2.3c.5.1.8.2,1.2.3,6.5,1.6,13.1,2.2,19.5,1.9,5.8-.3,11.3-1.4,16.5-3.2,2.4-.8,4.8-1.9,7.4-3.2l1.3-.7,2.1-1.2c.2-.2.5-.3.7-.5.8-.5,1.7-1.1,2.5-1.7,1.7-1.2,3.4-2.6,5.5-4.5.3-.2.5-.5.8-.7.6-.6,1.2-1.1,1.8-1.8l1.2-1.3,1.2-1.3.7-.8c.2-.2.5-.3.8-.3h.4s6.3.5,6.3.5l8.4.6c1.4,0,2.7.2,4.1.2"/>
  <path class="st7" d="M53.6,144.3c-2.3,0-4.4-.4-6.3-1.2-1.9-.8-3.6-1.9-5-3.3-1.4-1.4-2.5-3.1-3.3-5.1-.8-2-1.2-4.2-1.2-6.5s.3-4.6.9-6.7c.6-2.1,1.4-4,2.5-5.7,1.1-1.7,2.3-3.3,3.8-4.7,1.4-1.4,3-2.5,4.7-3.5,1.7-.9,3.5-1.7,5.3-2.2,1.9-.5,3.8-.8,5.7-.8s4.5.4,6.5,1.2c1.9.8,3.6,1.9,4.9,3.3,1.4,1.4,2.4,3.1,3.2,5.1.7,2,1.1,4.1,1.1,6.5s-.3,4.5-.8,6.6-1.4,4-2.4,5.7c-1,1.7-2.2,3.3-3.6,4.7-1.4,1.4-2.9,2.5-4.6,3.5-1.7,1-3.5,1.7-5.4,2.2-1.9.5-3.9.8-5.9.8ZM54.5,135.8c1.1,0,2.2-.2,3.3-.5,1.1-.4,2.1-.9,3-1.5.9-.6,1.8-1.4,2.6-2.3.8-.9,1.5-1.9,2-2.9.6-1.1,1-2.2,1.3-3.4.3-1.2.5-2.4.5-3.6s-.2-2.4-.5-3.4c-.3-1-.8-1.9-1.5-2.7-.6-.7-1.4-1.3-2.4-1.7s-2-.6-3.2-.6c-1.7,0-3.3.4-4.9,1.2-1.5.8-2.9,1.8-4,3.2-1.2,1.3-2.1,2.8-2.7,4.5-.7,1.7-1,3.5-1,5.3s.2,2.4.5,3.4c.3,1,.9,1.9,1.5,2.7.7.7,1.4,1.3,2.4,1.7.9.4,2,.6,3.1.6Z"/>
  <path class="st7" d="M97.3,129.5c.1-.6.2-1.2.1-1.7,0-.5-.2-1-.4-1.4-.2-.4-.5-.7-.9-.9-.4-.2-.8-.3-1.2-.3-.9,0-1.9.3-3.2,1-.7.4-1.4.8-2.1,1.3l-3.7,15.9h-8.8l7.4-32.2h-4.7l1.6-6.9h13.5l-3.5,15.2h0c.7-.6,1.5-1.1,2.3-1.6.8-.4,1.6-.8,2.5-1,.9-.2,1.7-.4,2.6-.4,1.5,0,2.7.3,3.8.7,1.1.5,2,1.2,2.6,2.1.6.9,1.1,2,1.2,3.4.2,1.3,0,2.8-.3,4.5l-2.1,9.1h4.8l-1.6,6.9h-13.4l3.2-14Z"/>
  <path class="st7" d="M42.6,150.6h13.2l-.4,2.1h0c.7-.6,1.5-1.1,2.3-1.5.8-.4,1.6-.7,2.5-.9.9-.2,1.7-.4,2.7-.4,1.4,0,2.7.2,3.8.7,1.1.5,2,1.2,2.6,2.1.6.9,1.1,2,1.2,3.3.2,1.3,0,2.8-.3,4.5l-2.1,9.1h4.7l-1.6,6.9h-13.3l3.2-14c.1-.6.2-1.2.1-1.7,0-.5-.2-1-.4-1.4-.2-.4-.5-.7-.9-.9-.4-.2-.8-.3-1.2-.3-.9,0-1.9.3-3.2,1-.6.3-1.3.8-2,1.3l-3.7,16h-8.8l4.4-19.1h-4.5l1.6-6.9Z"/>
  <path class="st7" d="M75.6,165.6c0-2.4.4-4.6,1.3-6.5.9-2,2-3.6,3.5-5,1.5-1.4,3.1-2.5,5.1-3.2,1.9-.8,3.9-1.1,6.1-1.1s3.2.3,4.6.9c1.4.6,2.7,1.4,3.7,2.5,1.1,1,1.9,2.3,2.5,3.7.6,1.4.9,2.9.9,4.6s-.4,4.4-1.2,6.3c-.8,1.9-1.9,3.6-3.3,5-1.4,1.4-3.1,2.5-5,3.3-1.9.8-4,1.2-6.3,1.2s-3.2-.3-4.7-.9c-1.4-.6-2.7-1.4-3.7-2.5-1-1-1.9-2.3-2.5-3.7-.6-1.4-.9-2.9-.9-4.5ZM83.8,164.7c0,.7.1,1.4.3,2,.2.6.5,1.1.9,1.6.4.4.9.8,1.4,1,.5.2,1.1.4,1.8.4s1.7-.2,2.5-.6,1.6-.9,2.2-1.6c.6-.7,1.2-1.4,1.6-2.3.4-.9.6-1.9.6-2.9s-.1-1.6-.4-2.2c-.2-.6-.6-1.2-1-1.6-.4-.4-.9-.7-1.4-1-.5-.2-1.1-.3-1.7-.3-.9,0-1.8.2-2.7.6-.8.4-1.5.9-2.2,1.6-.6.7-1.1,1.4-1.5,2.3-.4.9-.5,1.8-.5,2.9Z"/>
  <path class="st7" d="M112.2,137.1h9.4l-7.2,26.6h-7.4l5.1-26.6ZM105,173c0-.6.1-1.2.4-1.7.2-.5.6-1,1-1.4.4-.4.9-.7,1.4-1,.5-.2,1.1-.4,1.8-.4s1.2.1,1.7.4c.5.2,1,.5,1.4,1,.4.4.7.9,1,1.4.2.5.4,1.1.4,1.7s-.1,1.2-.4,1.8c-.2.5-.5,1-1,1.4-.4.4-.9.7-1.4.9-.5.2-1.1.4-1.7.4s-1.2-.1-1.8-.4c-.5-.2-1-.5-1.4-.9-.4-.4-.7-.9-1-1.4-.2-.5-.4-1.1-.4-1.8Z"/>
</svg>