<?xml version="1.0" encoding="UTF-8"?>
<svg id="Layer_1" xmlns="http://www.w3.org/2000/svg" version="1.1" viewBox="0 0 588 225.5">
  <!-- Generator: Adobe Illustrator 29.1.0, SVG Export Plug-In . SVG Version: 2.1.0 Build 142)  -->
  <defs>
    <style>
      .st0 {
        isolation: isolate;
      }

      .st1 {
        fill: #fff;
      }

      .st2 {
        fill: #efd665;
      }

      .st3 {
        fill: #03425c;
      }
    </style>
  </defs>
  <rect class="st3" y="-.5" width="588" height="226"/>
  <g class="st0">
    <g class="st0">
      <path class="st1" d="M88.3,114c5.8,3.1,10.3,7.4,13.5,13,3.2,5.6,4.8,12,4.8,19.3s-1.6,13.7-4.8,19.3c-3.2,5.6-7.7,10-13.6,13.1-5.9,3.1-12.7,4.6-20.4,4.6h-27.7v-73.9h27.7c7.8,0,14.6,1.5,20.4,4.6ZM82.6,162.1c3.8-3.7,5.7-9,5.7-15.8s-1.9-12.1-5.7-15.9-9.1-5.7-15.9-5.7h-8.5v43h8.5c6.8,0,12.1-1.9,15.9-5.6Z"/>
      <path class="st1" d="M171.8,158.2h-40.7c.3,3.7,1.5,6.4,3.5,8.4,2.1,1.9,4.6,2.9,7.6,2.9,4.5,0,7.6-1.9,9.4-5.7h19.2c-1,3.9-2.8,7.3-5.3,10.4-2.6,3.1-5.8,5.5-9.6,7.3-3.9,1.8-8.2,2.6-12.9,2.6s-10.9-1.2-15.4-3.7c-4.5-2.5-8-6-10.5-10.5-2.5-4.6-3.8-9.9-3.8-16s1.2-11.4,3.7-16c2.5-4.6,6-8.1,10.5-10.5,4.5-2.5,9.6-3.7,15.5-3.7s10.7,1.2,15.2,3.6c4.4,2.4,7.9,5.8,10.4,10.2,2.5,4.4,3.7,9.6,3.7,15.5s-.1,3.4-.3,5.3ZM153.6,148.2c0-3.1-1.1-5.5-3.2-7.4-2.1-1.8-4.7-2.7-7.9-2.7s-5.6.9-7.6,2.6c-2.1,1.8-3.4,4.2-3.8,7.5h22.5Z"/>
      <path class="st1" d="M199.5,105.3v77.9h-18v-77.9h18Z"/>
      <path class="st1" d="M212.4,137.9c2.3-4.6,5.4-8.1,9.3-10.5,3.9-2.5,8.3-3.7,13.2-3.7s7.8.8,10.9,2.5c3.1,1.7,5.5,3.9,7.2,6.6v-8.3h18v58.7h-18v-8.3c-1.8,2.7-4.2,4.9-7.3,6.6-3.1,1.7-6.8,2.5-10.9,2.5s-9.1-1.2-13.1-3.7c-3.9-2.5-7-6-9.3-10.6-2.3-4.6-3.4-9.9-3.4-16s1.1-11.3,3.4-15.9ZM249.3,143.2c-2.5-2.6-5.5-3.9-9.1-3.9s-6.6,1.3-9.1,3.8c-2.5,2.6-3.7,6.1-3.7,10.6s1.2,8.1,3.7,10.7c2.5,2.6,5.5,3.9,9.1,3.9s6.6-1.3,9.1-3.9c2.5-2.6,3.7-6.1,3.7-10.6s-1.2-8-3.7-10.6Z"/>
      <path class="st1" d="M368.4,124.5l-15.9,58.7h-19.9l-9.3-38.1-9.6,38.1h-19.8l-16-58.7h18l8.3,42,9.9-42h19.1l10,41.8,8.2-41.8h16.9Z"/>
      <path class="st1" d="M375.1,137.9c2.3-4.6,5.4-8.1,9.3-10.5,3.9-2.5,8.3-3.7,13.2-3.7s7.8.8,10.9,2.5,5.5,3.9,7.2,6.6v-8.3h18v58.7h-18v-8.3c-1.8,2.7-4.2,4.9-7.3,6.6s-6.8,2.5-10.9,2.5-9.1-1.2-13.1-3.7c-3.9-2.5-7-6-9.3-10.6-2.3-4.6-3.4-9.9-3.4-16s1.1-11.3,3.4-15.9ZM412,143.2c-2.5-2.6-5.5-3.9-9.1-3.9s-6.6,1.3-9.1,3.8c-2.5,2.6-3.7,6.1-3.7,10.6s1.2,8.1,3.7,10.7c2.5,2.6,5.5,3.9,9.1,3.9s6.6-1.3,9.1-3.9c2.5-2.6,3.7-6.1,3.7-10.6s-1.2-8-3.7-10.6Z"/>
      <path class="st1" d="M472.6,126.7c3.2-1.9,6.7-2.8,10.5-2.8v19.1h-4.9c-4.5,0-7.9,1-10.1,2.9-2.2,1.9-3.4,5.3-3.4,10.2v27.3h-18v-58.7h18v9.8c2.1-3.2,4.7-5.8,7.9-7.6Z"/>
      <path class="st1" d="M546.9,158.2h-40.7c.3,3.7,1.5,6.4,3.5,8.4,2.1,1.9,4.6,2.9,7.6,2.9,4.5,0,7.6-1.9,9.4-5.7h19.2c-1,3.9-2.8,7.3-5.3,10.4-2.6,3.1-5.8,5.5-9.6,7.3-3.9,1.8-8.2,2.6-12.9,2.6s-10.9-1.2-15.4-3.7c-4.5-2.5-8-6-10.5-10.5-2.5-4.6-3.8-9.9-3.8-16s1.2-11.4,3.7-16c2.5-4.6,6-8.1,10.5-10.5,4.5-2.5,9.7-3.7,15.5-3.7s10.7,1.2,15.2,3.6c4.4,2.4,7.9,5.8,10.4,10.2,2.5,4.4,3.7,9.6,3.7,15.5s-.1,3.4-.3,5.3ZM528.8,148.2c0-3.1-1.1-5.5-3.2-7.4-2.1-1.8-4.7-2.7-7.9-2.7s-5.6.9-7.6,2.6c-2.1,1.8-3.4,4.2-3.8,7.5h22.5Z"/>
    </g>
  </g>
  <g class="st0">
    <g class="st0">
      <path class="st1" d="M70.8,46.3c.2-1.1.2-2.1-.1-2.9-.3-.9-.9-1.6-1.6-2.2s-1.7-1-2.7-1.3c-1.1-.3-2.2-.5-3.4-.5-1.7,0-3.3.2-4.6.7-1.4.5-2.5,1.1-3.4,1.9-.9.8-1.7,1.7-2.1,2.8s-.7,2.2-.7,3.3.2,1.9.6,2.5c.4.6.9,1.2,1.5,1.6.6.4,1.3.7,2,1,.7.2,1.4.5,2.1.7l5.8,2.1c1.5.5,2.8,1.1,3.9,1.8,1.1.7,2.1,1.5,2.8,2.4s1.3,1.9,1.7,3.1c.4,1.2.6,2.5.6,3.9,0,2.3-.4,4.4-1.3,6.3-.9,1.9-2.1,3.5-3.8,4.9-1.6,1.4-3.5,2.4-5.8,3.2-2.3.7-4.8,1.1-7.5,1.1s-4.6-.3-6.3-.8c-1.7-.5-3.1-1.2-4.2-2.1s-1.9-1.9-2.5-3.1c-.6-1.2-.9-2.4-1-3.7h-3l1.2-5h8.5l-.6,2.3c-.3,2.2.4,3.9,2,5,1.6,1.1,3.9,1.7,6.9,1.7s3-.2,4.3-.7c1.3-.4,2.4-1,3.4-1.8.9-.8,1.7-1.7,2.2-2.8.5-1.1.8-2.3.8-3.6s-.2-1.9-.5-2.6c-.4-.7-.8-1.4-1.4-1.9-.6-.5-1.3-1-2.1-1.4-.8-.4-1.7-.7-2.6-1l-5.4-1.7c-2.8-.9-5-2.2-6.4-4-1.5-1.8-2.2-4-2.2-6.8s.4-4.1,1.2-5.9c.8-1.8,2-3.4,3.5-4.7,1.5-1.3,3.4-2.4,5.6-3.1s4.7-1.1,7.5-1.1,3.4.2,4.9.6c1.5.4,2.8.9,3.9,1.7s2.1,1.6,2.9,2.6c.8,1,1.3,2.1,1.7,3.3h3.1l-1.2,5h-8.1v-.6Z"/>
    </g>
    <g class="st0">
      <path class="st1" d="M82.1,49.4h5.4l1.9-7.7,6.6-2.7-2.5,10.4h6.8l-1.3,5.4h-6.8l-4.1,17.4c-.1.4-.2.8-.3,1.3,0,.4-.1.9-.1,1.4,0,.9.3,1.6.8,2,.5.4,1.3.6,2.4.6s2.6-.3,4.3-1l.5,4.5c-1.1.5-2.2.9-3.2,1.2-1,.3-2.1.5-3.4.5s-2.5-.2-3.6-.5c-1.1-.3-2-.9-2.7-1.6-.7-.7-1.2-1.7-1.4-2.9-.2-1.2-.1-2.7.2-4.4l4.5-18.3h-5.3l1.3-5.4Z"/>
      <path class="st1" d="M125,79.5c-1.4.9-2.8,1.6-4.2,2.1-1.4.4-2.9.7-4.3.7s-3.4-.3-5-1c-1.5-.7-2.9-1.6-4-2.8s-2-2.6-2.7-4.2c-.7-1.6-1-3.3-1-5.2,0-3,.5-5.8,1.6-8.3s2.5-4.7,4.3-6.5c1.8-1.8,3.9-3.2,6.4-4.2,2.4-1,5-1.5,7.7-1.5s3,.2,4.4.7c1.4.5,2.5,1.1,3.4,1.8l.4-1.7h6.3l-6.2,26.9h5l-1.2,5.4h-11.3l.5-2.2ZM117.9,76.9c.8,0,1.6,0,2.4-.3s1.6-.4,2.3-.7c.7-.3,1.4-.6,2.1-1,.6-.4,1.2-.8,1.7-1.2l4-17.3c-.5-.7-1.4-1.3-2.5-1.8-1.1-.5-2.6-.7-4.5-.7s-3.2.3-4.7,1c-1.6.7-2.9,1.6-4.2,2.8-1.2,1.2-2.2,2.8-3,4.5-.8,1.8-1.2,3.8-1.2,6.1s.2,2.5.6,3.6c.4,1,.9,1.9,1.6,2.7s1.5,1.3,2.4,1.7c.9.4,2,.6,3.1.6Z"/>
      <path class="st1" d="M147.5,49.4h5.4l1.9-7.7,6.6-2.7-2.5,10.4h6.8l-1.3,5.4h-6.8l-4.1,17.4c-.1.4-.2.8-.3,1.3,0,.4-.1.9-.1,1.4,0,.9.3,1.6.8,2,.5.4,1.3.6,2.4.6s2.6-.3,4.3-1l.5,4.5c-1.1.5-2.2.9-3.2,1.2-1,.3-2.1.5-3.4.5s-2.5-.2-3.6-.5c-1.1-.3-2-.9-2.7-1.6-.7-.7-1.2-1.7-1.4-2.9-.2-1.2-.1-2.7.2-4.4l4.5-18.3h-5.3l1.3-5.4Z"/>
    </g>
    <g class="st0">
      <path class="st1" d="M170.1,66.6c0,.3,0,.5,0,.7,0,.2,0,.4,0,.6,0,1.3.2,2.5.6,3.6.4,1.1,1,2.1,1.8,2.9.8.8,1.7,1.5,2.7,1.9,1,.5,2.2.7,3.4.7s3.2-.3,4.8-1c1.5-.7,2.8-1.7,3.8-2.9l4.6,3.4c-.7.9-1.5,1.8-2.5,2.5-1,.7-2.1,1.4-3.2,1.9s-2.4.9-3.8,1.2-2.7.4-4.1.4c-2,0-3.9-.3-5.6-1-1.7-.7-3.2-1.6-4.5-2.9-1.3-1.3-2.3-2.8-3.1-4.7-.7-1.8-1.1-3.9-1.1-6.2s.5-5.2,1.4-7.6c.9-2.4,2.3-4.4,3.9-6.2,1.7-1.8,3.6-3.1,5.9-4.2,2.3-1,4.8-1.5,7.4-1.5s3.9.3,5.5,1c1.6.7,3,1.6,4.1,2.8,1.1,1.1,2,2.5,2.6,4,.6,1.5.9,3,.9,4.6s0,2.1-.2,3.1c-.1,1-.3,1.9-.4,2.8h-24.8ZM181.6,53.8c-1.2,0-2.4.2-3.5.6-1.1.4-2.1.9-3,1.7-.9.7-1.7,1.5-2.4,2.5-.7,1-1.2,2-1.7,3.1h18.4c0-1.3-.2-2.4-.5-3.4-.4-1-.9-1.8-1.6-2.5-.7-.7-1.5-1.1-2.5-1.5-1-.3-2.1-.5-3.2-.5Z"/>
      <path class="st1" d="M213.6,67.7c0-1.8.2-3.5.7-5.1.4-1.6,1.1-3.2,1.9-4.6.8-1.4,1.8-2.7,3-3.9,1.2-1.2,2.4-2.2,3.8-3,1.4-.8,2.9-1.5,4.5-1.9s3.2-.7,4.9-.7,4.1.4,5.9,1.1c1.8.8,3.4,1.8,4.7,3.1,1.3,1.3,2.4,2.9,3.1,4.6.8,1.8,1.1,3.7,1.1,5.7s-.2,3.5-.7,5.2c-.5,1.7-1.1,3.2-1.9,4.6-.8,1.4-1.8,2.7-2.9,3.9s-2.4,2.2-3.8,3c-1.4.8-2.9,1.5-4.5,1.9-1.6.5-3.3.7-5,.7s-4.1-.4-5.9-1.1-3.4-1.8-4.7-3.1c-1.3-1.3-2.4-2.9-3.1-4.7-.7-1.8-1.1-3.7-1.1-5.8ZM220.1,67.3c0,1.5.2,2.8.6,4,.4,1.2,1,2.2,1.8,3.1.8.8,1.7,1.5,2.8,2,1.1.5,2.3.7,3.6.7s3-.3,4.4-1c1.4-.7,2.7-1.6,3.8-2.8,1.1-1.2,2-2.6,2.7-4.3.7-1.7,1-3.5,1-5.5s-.2-2.8-.7-3.9c-.4-1.2-1.1-2.2-1.9-3-.8-.8-1.7-1.5-2.8-1.9-1.1-.4-2.2-.7-3.5-.7s-3,.3-4.4,1-2.7,1.6-3.8,2.7c-1.1,1.2-2,2.6-2.6,4.2-.7,1.6-1,3.4-1,5.4Z"/>
      <path class="st1" d="M255,49.4h6.6l1.3-5.7c.5-2,1.1-3.7,1.9-5.1s1.8-2.6,2.9-3.5c1.1-.9,2.4-1.5,3.8-2,1.4-.4,2.9-.6,4.6-.6s1.9,0,2.8.2c.8.1,1.6.3,2.3.5.7.2,1.3.4,1.8.6.5.2,1,.4,1.4.6l-3.2,4.8c-.5-.4-1.3-.7-2.2-.9-.9-.3-2-.4-3.1-.4-1.7,0-3.1.5-4.2,1.4-1.2.9-2,2.5-2.5,4.8l-1.2,5.4h8.8l-1.3,5.4h-8.7l-9.5,41.6h-6.3l9.5-41.6h-6.6l1.3-5.4Z"/>
    </g>
  </g>
  <rect class="st2" x="392.6" y="49.9" width="24.1" height="24.1" transform="translate(74.7 304.3) rotate(-45)"/>
  <rect class="st2" x="311.5" y="49.9" width="24.1" height="24.1" transform="translate(51 246.9) rotate(-45)"/>
  <rect class="st2" x="471.9" y="49.7" width="24.1" height="24.1" transform="translate(98.1 360.3) rotate(-45)"/>
</svg>